<?xml version="1.0" encoding="utf-8" ?>
<svg baseProfile="full" height="200mm" version="1.1" viewBox="0,0,200,200" width="200mm" xmlns="http://www.w3.org/2000/svg" xmlns:ev="http://www.w3.org/2001/xml-events" xmlns:xlink="http://www.w3.org/1999/xlink"><defs /><rect fill="#1a1a1a" height="200" width="200" x="0" y="0" /><text alignment-baseline="middle" fill="#e1ed5e" style="dominant-baseline: central; font-size:9.0px; font-family:Arial;" text-anchor="middle" x="100.0" y="100.0">2023</text><line stroke="#e1ed5e" stroke-width="0.3" x1="100.0" x2="100.0" y1="15.0" y2="10.0" /><path d="M 100.0 14.0 a86.0,86.0 0 0,1 42.46469731375804,11.215312516191453" fill="none" id="id1" stroke="none" /><text fill="#e1ed5e" style="font-size:6.75px; font-family:Arial;" text-anchor="middle"><textPath startOffset="22.20632615414155" xlink:href="#id1">January</textPath></text><line stroke="#e1ed5e" stroke-width="0.3" x1="143.23703022742887" x2="145.7803849466894" y1="26.81831364943548" y2="22.513508569990506" /><path d="M 143.74570117128098 25.957352633546492 a86.0,86.0 0 0,1 28.547481713284135,27.462654790039103" fill="none" id="id2" stroke="none" /><text fill="#e1ed5e" style="font-size:6.75px; font-family:Arial;" text-anchor="middle"><textPath startOffset="19.985693538727396" xlink:href="#id2">February</textPath></text><line stroke="#e1ed5e" stroke-width="0.3" x1="172.23445277983987" x2="176.4835382374775" y1="55.19839476539836" y2="52.563006222186495" /><path d="M 173.08426987136738 54.67131705675599 a86.0,86.0 0 0,1 12.851231095245387,41.99856678651699" fill="none" id="id3" stroke="none" /><text fill="#e1ed5e" style="font-size:6.75px; font-family:Arial;" text-anchor="middle"><textPath startOffset="22.20632615414155" xlink:href="#id3">March</textPath></text><line stroke="#e1ed5e" stroke-width="0.3" x1="184.98032266829074" x2="189.97916517819016" y1="98.17113171792111" y2="98.06355123074" /><path d="M 185.9800911702706 98.14961562048488 a86.0,86.0 0 0,1 -9.607161424134198,41.387399972396054" fill="none" id="id4" stroke="none" /><text fill="#e1ed5e" style="font-size:6.75px; font-family:Arial;" text-anchor="middle"><textPath startOffset="21.466115282336823" xlink:href="#id4">April</textPath></text><line stroke="#e1ed5e" stroke-width="0.3" x1="174.80103733775053" x2="179.2010983576182" y1="140.37084112569926" y2="142.7455964860345" /><path d="M 175.68104954172406 140.8457921977663 a86.0,86.0 0 0,1 -30.038265399797805,32.042727171017184" fill="none" id="id5" stroke="none" /><text fill="#e1ed5e" style="font-size:6.75px; font-family:Arial;" text-anchor="middle"><textPath startOffset="22.206326154141568" xlink:href="#id5">May</textPath></text><line stroke="#e1ed5e" stroke-width="0.3" x1="143.8653032363475" x2="146.44561519142675" y1="172.8068346515853" y2="177.08958963109032" /><path d="M 144.38136562736335 173.6633856474863 a86.0,86.0 0 0,1 -40.68145358897372,12.25698825130547" fill="none" id="id6" stroke="none" /><text fill="#e1ed5e" style="font-size:6.75px; font-family:Arial;" text-anchor="middle"><textPath startOffset="21.466115282336833" xlink:href="#id6">June</textPath></text><line stroke="#e1ed5e" stroke-width="0.3" x1="102.19456741930631" x2="102.32365962044197" y1="184.97166512339345" y2="189.96999836594603" /><path d="M 102.22038585953345 185.97133177190398 a86.0,86.0 0 0,1 -42.740103519485714,-10.115201625700543" fill="none" id="id7" stroke="none" /><text fill="#e1ed5e" style="font-size:6.75px; font-family:Arial;" text-anchor="middle"><textPath startOffset="22.20632615414155" xlink:href="#id7">July</textPath></text><line stroke="#e1ed5e" stroke-width="0.3" x1="58.666819895761336" x2="56.23545636021788" y1="174.27360380694188" y2="178.64263932499728" /><path d="M 58.180547188652646 175.14741091055294 a86.0,86.0 0 0,1 -31.652253787137756,-30.449443065178592" fill="none" id="id8" stroke="none" /><text fill="#e1ed5e" style="font-size:6.75px; font-family:Arial;" text-anchor="middle"><textPath startOffset="22.20632615414155" xlink:href="#id8">August</textPath></text><line stroke="#e1ed5e" stroke-width="0.3" x1="26.63291911575756" x2="22.317208475507996" y1="142.92168965132927" y2="145.44649492493687" /><path d="M 25.769776987707644 143.4266507060508 a86.0,86.0 0 0,1 -11.730757126820373,-40.83630448921669" fill="none" id="id9" stroke="none" /><text fill="#e1ed5e" style="font-size:6.75px; font-family:Arial;" text-anchor="middle"><textPath startOffset="21.46611528233685" xlink:href="#id9">September</textPath></text><line stroke="#e1ed5e" stroke-width="0.3" x1="15.007084014347285" x2="10.007500721073583" y1="101.09737516637583" y2="101.16192664675087" /><path d="M 14.007167355692545 101.11028546245083 a86.0,86.0 0 0,1 10.666146001902534,-42.60595125391555" fill="none" id="id10" stroke="none" /><text fill="#e1ed5e" style="font-size:6.75px; font-family:Arial;" text-anchor="middle"><textPath startOffset="22.20632615414155" xlink:href="#id10">October</textPath></text><path d="M 79.62865764111835 94.90015583598534 l -3.5875316801163346 -0.8981171775399577 a24.698242558355343,24.698242558355343 0 0,0 0.10679481050740713,-0.41152396922998613 l 3.5715405377386205 0.9597375723188076" fill="#ff0200" stroke="none" /><path d="M 79.71946130924805 94.55025226153421 l -30.432534238097745 -8.177772650362797 a52.512142194303664,52.512142194303664 0 0,0 0.24208905096709563,-0.870923121882532 l 30.28725841656429 8.700407075664272" fill="#8bff24" stroke="none" /><path d="M 80.2630227832202 92.82701384747504 l -54.651575794114564 -19.861957182155134 a79.14887857805697,79.14887857805697 0 0,0 0.4763835751194392,-1.2764711383077092 l 54.30158763049349 20.799751457492185" fill="#47fffd" stroke="none" /><path d="M 80.38941819471856 92.48833698450439 l -3.336808597159914 -1.2781355483458194 a24.573222928117637,24.573222928117637 0 0,0 0.15470183672820328,-0.39369930033730577 l 3.3143132105500195 1.3353838535788887" fill="#ff0000" stroke="none" /><path d="M 80.52162464483688 92.15188598940014 l -26.913861739044318 -10.843977053638215 a50.016336640730955,50.016336640730955 0 0,0 0.3286271313247627,-0.7957966649731436 l 26.723212920833355 11.305648289064669" fill="#a8ff21" stroke="none" /><path d="M 80.95270993114464 91.15688171328213 l -25.732971821469892 -11.947091311331683 a49.371091441216365,49.371091441216365 0 0,0 0.3645039613833442,-0.7677383027730482 l 25.523509666244795 12.388272029745263" fill="#afff20" stroke="none" /><path d="M 81.43458229118936 90.18545643968196 l -3.2260014070846874 -1.705414434088072 a24.649044185880506,24.649044185880506 0 0,0 0.20152577374865238,-0.3733966522955589 l 3.196167534117563 1.7606920697161037" fill="#ff0100" stroke="none" /><path d="M 81.6062741919709 89.86733742301443 l -23.841703438176797 -13.13382284377368 a48.21992147904918,48.21992147904918 0 0,0 0.4067519346425027,-0.723566305128489 l 23.612093862241863 13.542272658836955" fill="#bdff1f" stroke="none" /><line stroke="#e1ed5e" stroke-width="0.3" x1="26.266209847984243" x2="21.928928074336255" y1="57.711370442889674" y2="55.22380399835377" /><path d="M 25.398753493254645 57.213857153982495 a86.0,86.0 0 0,1 29.58750427330803,-30.492523968695096" fill="none" id="id11" stroke="none" /><text fill="#e1ed5e" style="font-size:6.75px; font-family:Arial;" text-anchor="middle"><textPath startOffset="21.46611528233685" xlink:href="#id11">November</textPath></text><path d="M 82.95767976084542 87.72973835380427 l -31.482733523672593 -22.667182182470462 a59.79386108929974,59.79386108929974 0 0,0 0.608580174140459,-0.8301026735914374 l 31.087890737018498 23.2057472997334" fill="#3dff2e" stroke="none" /><path d="M 83.39014120810768 87.1503855733568 l -32.22613762321603 -24.930581777154856 a61.74380755228781,61.74380755228781 0 0,0 0.6575595527457296,-0.8350338557689998 l 31.79222398987633 25.481608026876902" fill="#30ff37" stroke="none" /><path d="M 84.80347519578584 85.50635884689758 l -23.203332796424963 -22.130110893125774 a53.064567064030264,53.064567064030264 0 0,0 0.6361070410066149,-0.6555642211448145 l 22.818961491715232 22.52623930982071" fill="#85ff25" stroke="none" /><path d="M 86.93701828274178 83.55741782278169 l -28.540148667267964 -35.923937579396416 a66.88103504889713,66.88103504889713 0 0,0 0.9075675079131958,-0.7083708355235172 l 27.917548604195343 36.409886804143156" fill="#37ff76" stroke="none" /><path d="M 88.39885842347998 82.49532879139004 l -21.426577261336945 -32.3300243869698 a59.78567635091727,59.78567635091727 0 0,0 0.8627157771484032,-0.5611343394578876 l 20.866894458404257 32.69405765058722" fill="#3dff2e" stroke="none" /><line stroke="#e1ed5e" stroke-width="0.3" x1="56.762969772571076" x2="54.21961505331055" y1="26.818313649435495" y2="22.513508569990535" /><path d="M 56.25429882871897 25.957352633546506 a86.0,86.0 0 0,1 42.265352541879196,-11.944610805530505" fill="none" id="id12" stroke="none" /><text fill="#e1ed5e" style="font-size:6.75px; font-family:Arial;" text-anchor="middle"><textPath startOffset="22.20632615414155" xlink:href="#id12">December</textPath></text><path d="M 89.94658935756843 81.56283822128135 l -21.827404853987865 -40.029738047706736 a66.59402955243058,66.59402955243058 0 0,0 1.0111350568777577,-0.540113329559529 l 21.135124750581802 40.399530103768015" fill="#36ff73" stroke="none" /><path d="M 90.91171255644093 81.06846463323043 l -19.205525503345644 -40.00644649082504 a65.3775615675637,65.3775615675637 0 0,0 1.0187125065241984,-0.47829918125650583 l 18.51403478552184 40.331110654721556" fill="#35ff64" stroke="none" /><path d="M 91.56875222667455 80.76684994638697 l -11.68466581445446 -26.654765341700546 a50.10340067099722,50.10340067099722 0 0,0 0.7928654206148735,-0.3394635951494829 l 11.224116636049278 26.851948464812814" fill="#a7ff21" stroke="none" /><path d="M 92.91201910852362 80.23233633223022 l -1.4043400501379013 -3.916562729406942 a25.160725248054824,25.160725248054824 0 0,0 0.4089432532371605,-0.14267227124318135 l 1.3367147928374554 3.940155853822333" fill="#ff0901" stroke="none" /><path d="M 93.25333710446033 80.11325718540243 l -1.3490243583746087 -3.976440038727828 a25.199040616746377,25.199040616746377 0 0,0 0.4119649288923935,-0.13581835998332478 l 1.280376607239806 3.9990721229703863" fill="#ff0a01" stroke="none" /><path d="M 93.59665428221793 80.00007090966166 l -15.531045585107554 -48.50898640977214 a71.93461631808124,71.93461631808124 0 0,0 1.1825181791163404,-0.3674141544549854 l 14.693742033280484 48.769140699109656" fill="#3dffb0" stroke="none" /><path d="M 95.33964822691252 79.52364482259891 l -11.470193911836791 -50.39700347273009 a72.68581340566777,72.68581340566777 0 0,0 1.2223582788110057,-0.26716017499237826 l 10.600992908872264 50.58697714581834" fill="#3effb8" stroke="none" /><path d="M 97.11714578562143 79.19881850522333 l -0.9253943507427153 -6.677165896226094 a27.740986508672997,27.740986508672997 0 0,0 0.47355881333435684,-0.06148152519974773 l 0.8103208089005006 6.692105744589979" fill="#ff3004" stroke="none" /><path d="M 97.83486435360386 79.11191278185805 l -6.495406939188433 -62.66426165442583 a84.0,84.0 0 0,0 1.4394994916390547,-0.13669782193927782 l 5.415782320459142 62.766785020880285" fill="#4dd2ff" stroke="none" /></svg>