<?xml version="1.0" encoding="utf-8" ?>
<svg baseProfile="full" height="200mm" version="1.1" viewBox="0,0,200,200" width="200mm" xmlns="http://www.w3.org/2000/svg" xmlns:ev="http://www.w3.org/2001/xml-events" xmlns:xlink="http://www.w3.org/1999/xlink"><defs /><rect fill="#1a1a1a" height="200" width="200" x="0" y="0" /><text alignment-baseline="middle" fill="#e1ed5e" style="dominant-baseline: central; font-size:9.0px; font-family:Arial;" text-anchor="middle" x="100.0" y="100.0">2024</text><line stroke="#e1ed5e" stroke-width="0.3" x1="100.0" x2="100.0" y1="15.0" y2="10.0" /><path d="M 100.0 14.0 a86.0,86.0 0 0,1 42.35913384403234,11.155469271406648" fill="none" id="id13" stroke="none" /><text fill="#e1ed5e" style="font-size:6.75px; font-family:Arial;" text-anchor="middle"><textPath startOffset="22.145653131862478" xlink:href="#id13">January</textPath></text><path d="M 100.36049292484886 79.00309439819443 l 0.28367954507870924 -16.52291132115329 a37.52534636886597,37.52534636886597 0 0,0 0.6439826293439593,0.01658670816825108 l -0.5672754884934099 16.515606895634996" fill="#ff8d0d" stroke="none" /><path d="M 105.69591212413111 79.78721728523813 l 2.07877384532256 -7.376835023599412 a28.664136981121885,28.664136981121885 0 0,0 0.4724668580827392,0.13752821658211783 l -2.2051007157869034 7.340063112714779" fill="#ff0300" stroke="none" /><line stroke="#e1ed5e" stroke-width="0.3" x1="143.13028292997686" x2="145.6673583964461" y1="26.7553504044142" y2="22.446841604673864" /><path d="M 143.63769802327073 25.89364864446614 a86.0,86.0 0 0,1 29.32050498858742,28.57503671076993" fill="none" id="id14" stroke="none" /><text fill="#e1ed5e" style="font-size:6.75px; font-family:Arial;" text-anchor="middle"><textPath startOffset="20.669276256404974" xlink:href="#id14">February</textPath></text><path d="M 113.86319453409587 84.22622945171908 l 6.589575817648937 -7.497727648735897 a30.98190509628109,30.98190509628109 0 0,0 0.396472449286182,0.3545281089221438 l -6.717313293758494 7.383504009930366" fill="#ff2803" stroke="none" /><path d="M 117.42321728460499 88.27688183743584 l 8.562521327378999 -5.7612464822460865 a31.32030680314365,31.32030680314365 0 0,0 0.2963133108233152,0.4486561191895086 l -8.660159077123039 5.613410484717519" fill="#ff2d04" stroke="none" /><path d="M 117.62189284568427 88.57770195909679 l 7.989111762665621 -5.178445722849867 a30.52062008804386,30.52062008804386 0 0,0 0.28120000131637907,0.4420931081481128 l -8.07682945560789 5.040538940023082" fill="#ff2103" stroke="none" /><line stroke="#e1ed5e" stroke-width="0.3" x1="172.87174338648825" x2="177.1583165268699" y1="56.24261187166439" y2="53.66864786411523" /><path d="M 173.72905801456457 55.72781907015455 a86.0,86.0 0 0,1 12.242430191666344,42.057860355516425" fill="none" id="id15" stroke="none" /><text fill="#e1ed5e" style="font-size:6.75px; font-family:Arial;" text-anchor="middle"><textPath startOffset="22.145653131862474" xlink:href="#id15">March</textPath></text><path d="M 118.70294669586156 90.45014215332178 l 8.664430793466344 -4.424120099657557 a30.72857644421638,30.72857644421638 0 0,0 0.23584926753136048,0.4718565242236551 l -8.739099974209442 4.274731719270152" fill="#ff2403" stroke="none" /><path d="M 118.8641267826498 90.77261029715802 l 8.649093697755287 -4.230705139184394 a30.628379290787805,30.628379290787805 0 0,0 0.22697195774846016,0.4742840965415374 l -8.720444913463659 4.081608540577753" fill="#ff2203" stroke="none" /><path d="M 119.4528033332814 92.08871423366111 l 8.852451890938813 -3.6002151176927706 a30.55653982229184,30.55653982229184 0 0,0 0.19343937582980295,0.4875935910439609 l -8.912949941734741 3.4477205094352446" fill="#ff2103" stroke="none" /><path d="M 119.58574465831526 92.42381321644754 l 8.888265213904024 -3.4381719264219726 a30.530072649688066,30.530072649688066 0 0,0 0.18488040295029906,0.49041723393888487 l -8.945976300668763 3.28508641228893" fill="#ff2103" stroke="none" /><path d="M 119.83427380445688 93.10060997987247 l 18.26458050843884 -6.353369209485372 a40.33805061171577,40.33805061171577 0 0,0 0.2218872814764263,0.6559703208989265 l -18.37095321148763 6.038897214112284" fill="#ffb610" stroke="none" /><path d="M 120.05942366710727 93.78553927170692 l 14.592972934515696 -4.520940317906424 a36.27723012936506,36.27723012936506 0 0,0 0.17918132424252525,0.5964363528359709 l -14.66843057876185 4.269766361479729" fill="#ff7a0b" stroke="none" /><path d="M 120.35273937422433 94.82641323984039 l 16.929926073570883 -4.3035210039408 a38.46833391849191,38.46833391849191 0 0,0 0.15719347068300202,0.6414030027900381 l -17.001307070770174 4.0122621765426665" fill="#ff9b0e" stroke="none" /><path d="M 120.51834098615036 95.52812308129327 l 18.77444547521469 -4.091803008771548 a40.2151673103411,40.2151673103411 0 0,0 0.14121707128788782,0.6757748072678269 l -18.841920257326947 3.768911750218316" fill="#ffb410" stroke="none" /><path d="M 120.7213421655516 96.59031103205396 l 62.16402649665483 -10.229066903838131 a84.0,84.0 0 0,0 0.22191403144693922,1.424847272274235 l -62.330462020240034 9.160431449632455" fill="#4dd2ff" stroke="none" /><path d="M 120.93736805541906 98.37931529534042 l 9.684482230871446 -0.7496401736157313 a30.71345234558565,30.71345234558565 0 0,0 0.036177578570252326,0.5260140525243986 l -9.695923770606765 0.5832826969369986" fill="#ff2403" stroke="none" /><path d="M 120.96210409425399 98.7389718711861 l 7.491790067985377 -0.45068748673411546 a28.50533394549923,28.50533394549923 0 0,0 0.025191128097050944,0.4887011552188329 l -7.498422785539001 0.3220145381385519" fill="#ff0000" stroke="none" /><line stroke="#e1ed5e" stroke-width="0.3" x1="184.99686870605535" x2="189.99668451229388" y1="99.2704041080226" y2="99.22748670261217" /><path d="M 185.99683186730306 99.26182062694052 a86.0,86.0 0 0,1 -10.086455211305974,41.156179273409016" fill="none" id="id16" stroke="none" /><text fill="#e1ed5e" style="font-size:6.75px; font-family:Arial;" text-anchor="middle"><textPath startOffset="21.40746469413373" xlink:href="#id16">April</textPath></text><path d="M 120.99922638620191 100.18025310272382 l 10.830346140793722 0.09296549594483278 a31.830745131930755,31.830745131930755 0 0,0 -0.009380321119728932,0.5463566785622342 l -10.827154388075325 -0.2788690904761381" fill="#ff3505" stroke="none" /><line stroke="#e1ed5e" stroke-width="0.3" x1="174.33088141563837" x2="178.70328620479359" y1="141.23008692659167" y2="143.65538615756765" /><path d="M 175.20536237346943 141.71514677278685 a86.0,86.0 0 0,1 -30.301960400862466,31.631185727798858" fill="none" id="id17" stroke="none" /><text fill="#e1ed5e" style="font-size:6.75px; font-family:Arial;" text-anchor="middle"><textPath startOffset="22.145653131862474" xlink:href="#id17">May</textPath></text><path d="M 117.423217284605 111.72311816256416 l 8.320970075425095 5.598720019841632 a31.029167904502117,31.029167904502117 0 0,0 -0.30114585128658056,0.4393807968799218 l -8.223634487323194 -5.740735551791597" fill="#ff2904" stroke="none" /><line stroke="#e1ed5e" stroke-width="0.3" x1="143.1302829299769" x2="145.66735839644613" y1="173.24464959558577" y2="177.55315839532614" /><path d="M 143.63769802327073 174.10635135553383 a86.0,86.0 0 0,1 -40.68552437913181,11.842963189579606" fill="none" id="id18" stroke="none" /><text fill="#e1ed5e" style="font-size:6.75px; font-family:Arial;" text-anchor="middle"><textPath startOffset="21.407464694133747" xlink:href="#id18">June</textPath></text><line stroke="#e1ed5e" stroke-width="0.3" x1="101.45913802915013" x2="101.54496967792366" y1="184.9874750549273" y2="189.98673829345242" /><path d="M 101.47630435890484 185.9873277026323 a86.0,86.0 0 0,1 -42.54439059252881,-10.42667462771756" fill="none" id="id19" stroke="none" /><text fill="#e1ed5e" style="font-size:6.75px; font-family:Arial;" text-anchor="middle"><textPath startOffset="22.145653131862474" xlink:href="#id19">July</textPath></text><line stroke="#e1ed5e" stroke-width="0.3" x1="58.13341422392154" x2="55.67067388415222" y1="173.97424548756322" y2="178.32567169271397" /><path d="M 57.64086615596768 174.84453072859336 a86.0,86.0 0 0,1 -31.369924170532247,-30.572349798747897" fill="none" id="id20" stroke="none" /><text fill="#e1ed5e" style="font-size:6.75px; font-family:Arial;" text-anchor="middle"><textPath startOffset="22.145653131862474" xlink:href="#id20">August</textPath></text><line stroke="#e1ed5e" stroke-width="0.3" x1="26.387840678322732" x2="22.057713659400548" y1="142.50000000000003" y2="145.00000000000006" /><path d="M 25.521815274538298 143.00000000000003 a86.0,86.0 0 0,1 -11.493303480769221,-40.785679425670985" fill="none" id="id21" stroke="none" /><text fill="#e1ed5e" style="font-size:6.75px; font-family:Arial;" text-anchor="middle"><textPath startOffset="21.40746469413373" xlink:href="#id21">September</textPath></text><line stroke="#e1ed5e" stroke-width="0.3" x1="15.003131293944662" x2="10.003315487706104" y1="100.72959589197737" y2="100.7725132973878" /><path d="M 14.003168132696942 100.73817937305945 a86.0,86.0 0 0,1 10.791469493833604,-42.45332614584628" fill="none" id="id22" stroke="none" /><text fill="#e1ed5e" style="font-size:6.75px; font-family:Arial;" text-anchor="middle"><textPath startOffset="22.145653131862435" xlink:href="#id22">October</textPath></text><line stroke="#e1ed5e" stroke-width="0.3" x1="26.387840678322718" x2="22.05771365940052" y1="57.49999999999999" y2="54.99999999999999" /><path d="M 25.521815274538284 56.99999999999999 a86.0,86.0 0 0,1 29.574782752854787,-30.34633250058573" fill="none" id="id23" stroke="none" /><text fill="#e1ed5e" style="font-size:6.75px; font-family:Arial;" text-anchor="middle"><textPath startOffset="21.40746469413373" xlink:href="#id23">November</textPath></text><line stroke="#e1ed5e" stroke-width="0.3" x1="56.869717070023135" x2="54.33264160355391" y1="26.7553504044142" y2="22.446841604673864" /><path d="M 56.362301976729285 25.89364864446614 a86.0,86.0 0 0,1 42.16139366436587,-11.88097634709845" fill="none" id="id24" stroke="none" /><text fill="#e1ed5e" style="font-size:6.75px; font-family:Arial;" text-anchor="middle"><textPath startOffset="22.145653131862474" xlink:href="#id24">December</textPath></text></svg>